<svg width="640" height="640" viewBox="0 0 640 640" fill="none" xmlns="http://www.w3.org/2000/svg">
<path d="M192 160V144C192 99.8 278 64 384 64C490 64 576 99.8 576 144V160C576 190.6 534.7 217.2 474 230.7C471.6 227.9 469.1 225.2 466.6 222.7C451.1 207.4 431.1 195.8 410.2 187.2C368.3 169.7 313.7 160.1 256 160.1C234.1 160.1 212.7 161.5 192.2 164.2C192 162.9 192 161.5 192 160.1V160ZM496 417V370.8C511.1 366.9 525.3 362.3 538.2 356.9C551.4 351.4 564.3 344.7 576 336.6V352C576 378.8 544.5 402.5 496 417ZM496 321V288C496 283.5 495.6 279.2 495 275C510.5 271.1 525 266.4 538.2 260.8C551.4 255.2 564.3 248.6 576 240.5V255.9C576 282.7 544.5 306.4 496 320.9V321ZM64 304V288C64 243.8 150 208 256 208C362 208 448 243.8 448 288V304C448 348.2 362 384 256 384C150 384 64 348.2 64 304ZM448 400C448 444.2 362 480 256 480C150 480 64 444.2 64 400V384.6C75.6 392.7 88.5 399.3 101.8 404.9C143.7 422.4 198.3 432 256 432C313.7 432 368.3 422.3 410.2 404.9C423.4 399.4 436.3 392.7 448 384.6V400ZM448 480.6V496C448 540.2 362 576 256 576C150 576 64 540.2 64 496V480.6C75.6 488.7 88.5 495.3 101.8 500.9C143.7 518.4 198.3 528 256 528C313.7 528 368.3 518.3 410.2 500.9C423.4 495.4 436.3 488.7 448 480.6Z" fill="white"/>
</svg>
